<svg width="21.017090" height="21.000000" viewBox="0 0 21.0171 21" fill="none" xmlns="http://www.w3.org/2000/svg" xmlns:xlink="http://www.w3.org/1999/xlink">
	<desc>
			Created with Pixso.
	</desc>
	<defs>
		<clipPath id="clip139_6533">
			<rect id="BACKGROUND_2" width="21.017076" height="21.000000" fill="white" fill-opacity="0"/>
		</clipPath>
	</defs>
	<rect id="BACKGROUND_2" width="21.017076" height="21.000000" fill="#FFFFFF" fill-opacity="0"/>
	<g clip-path="url(#clip139_6533)">
		<path id="Vector" d="M1.26 13.76L11.1 13.76L11.1 15.56L17.26 15.56L17.26 13.76L19.7 13.76C19.86 15.91 19.87 17.83 17.67 19.28C17.64 19.3 17.62 19.33 17.56 19.38C17.83 19.61 18.1 19.83 18.36 20.05C18 20.39 17.72 20.66 17.39 20.98C17.1 20.68 16.78 20.33 16.44 20.02C16.34 19.92 16.16 19.88 16.02 19.88C15.78 19.86 15.54 19.9 15.3 19.9C12.1 19.9 8.91 19.9 5.71 19.9C5.56 19.9 5.39 19.93 5.25 19.89C4.83 19.76 4.56 19.96 4.3 20.26C4.09 20.52 3.84 20.76 3.61 21C3.31 20.68 3.03 20.39 2.73 20.07C2.93 19.89 3.19 19.66 3.49 19.4C3.28 19.25 3.13 19.15 2.99 19.04C1.92 18.22 1.35 17.13 1.27 15.79C1.23 15.12 1.26 14.46 1.26 13.76L1.26 13.76Z" fill="#FFFFFF" fill-opacity="1.000000" fill-rule="nonzero"/>
		<path id="Vector" d="M1.27 8.78C1.27 8.66 1.26 8.56 1.26 8.45C1.26 6.71 1.25 4.97 1.26 3.23C1.26 1.32 2.59 -0.02 4.5 -3.06e-5C5.14 0 5.8 -0.01 6.41 0.13C7.51 0.39 8.2 1.15 8.53 2.22C8.59 2.42 8.68 2.52 8.9 2.59C10.19 2.93 11.09 4.14 11.11 5.48C11.11 5.69 11.11 5.91 11.11 6.14L5.02 6.14C4.73 4.61 5.56 3.02 7.31 2.53C7.15 1.85 6.48 1.27 5.77 1.24C5.23 1.22 4.7 1.22 4.16 1.24C3.24 1.28 2.5 2.13 2.49 3.14C2.48 4.89 2.49 6.64 2.49 8.4C2.49 8.51 2.49 8.63 2.49 8.78L1.27 8.78L1.27 8.78Z" fill="#FFFFFF" fill-opacity="1.000000" fill-rule="nonzero"/>
		<path id="Vector" d="M11.09 12.53C10.96 12.53 10.86 12.53 10.77 12.53C7.64 12.53 4.51 12.53 1.38 12.53C0.71 12.53 0.23 12.21 0.06 11.66C-0.2 10.85 0.38 10.06 1.26 10.05C2.2 10.03 3.14 10.04 4.08 10.04C6.29 10.04 8.5 10.04 10.71 10.04C10.83 10.04 10.95 10.04 11.09 10.04L11.09 12.53L11.09 12.53Z" fill="#FFFFFF" fill-opacity="1.000000" fill-rule="nonzero"/>
		<path id="Vector" d="M16.02 14.37L12.36 14.37C12.35 14.25 12.34 14.15 12.34 14.04C12.34 12.77 12.34 11.5 12.34 10.24C12.34 9.32 12.84 8.81 13.76 8.81C14.1 8.81 14.44 8.8 14.77 8.81C15.54 8.84 16.03 9.35 16.04 10.11C16.04 11.43 16.04 12.76 16.04 14.08C16.04 14.17 16.03 14.25 16.02 14.37Z" fill="#FFFFFF" fill-opacity="1.000000" fill-rule="nonzero"/>
		<path id="Vector" d="M17.28 12.52L17.28 10.04C17.87 10.04 18.46 10.04 19.05 10.04C19.35 10.05 19.66 10.02 19.96 10.07C20.61 10.18 21.04 10.71 21.01 11.33C20.99 11.95 20.53 12.47 19.89 12.5C19.03 12.55 18.17 12.52 17.28 12.52L17.28 12.52Z" fill="#FFFFFF" fill-opacity="1.000000" fill-rule="nonzero"/>
	</g>
</svg>
