<svg width="22.000000" height="17.000000" viewBox="0 0 22 17" fill="none" xmlns="http://www.w3.org/2000/svg" xmlns:xlink="http://www.w3.org/1999/xlink">
	<desc>
			Created with Pixso.
	</desc>
	<defs>
		<clipPath id="clip139_6527">
			<rect id="BACKGROUND_2" width="22.000000" height="17.000000" fill="white" fill-opacity="0"/>
		</clipPath>
	</defs>
	<rect id="BACKGROUND_2" width="22.000000" height="17.000000" fill="#FFFFFF" fill-opacity="0"/>
	<g clip-path="url(#clip139_6527)">
		<path id="Vector" d="M11.01 15.45C8.01 15.45 5.01 15.45 2.01 15.45C1.71 15.45 1.57 15.59 1.57 15.89C1.57 15.97 1.57 16.05 1.57 16.12C1.56 16.22 1.55 16.31 1.54 16.4C1.47 16.73 1.15 17 0.77 16.99C0.39 16.99 0.08 16.71 0.02 16.34C0.01 16.26 0 16.17 0 16.08C0 14.32 -0.01 12.56 0 10.8C0.01 9.77 0.39 8.88 1.12 8.14C1.56 7.69 2.09 7.36 2.69 7.16C3.16 7 3.65 6.95 4.15 6.95C8.76 6.95 13.37 6.95 17.98 6.95C19.33 6.96 20.43 7.49 21.24 8.56C21.64 9.08 21.87 9.68 21.95 10.33C21.98 10.55 21.99 10.77 21.99 11C22 12.71 22 14.42 22 16.13C22 16.39 21.93 16.64 21.71 16.81C21.47 17 21.21 17.05 20.92 16.93C20.66 16.82 20.48 16.62 20.45 16.33C20.43 16.19 20.43 16.04 20.43 15.89C20.42 15.65 20.32 15.51 20.12 15.46C20.07 15.45 20.03 15.46 19.98 15.46C16.99 15.46 14 15.46 11.01 15.46L11.01 15.45Z" fill="#FFFFFF" fill-opacity="1.000000" fill-rule="nonzero"/>
		<path id="Vector" d="M10.9 0C12.84 0 14.79 0 16.73 0C17.38 0 17.99 0.14 18.52 0.53C19.19 1.04 19.58 1.71 19.62 2.56C19.65 3.27 19.63 3.99 19.64 4.7C19.64 5.16 19.64 5.62 19.64 6.08C19.64 6.12 19.63 6.17 19.62 6.21C19.59 6.33 19.52 6.38 19.39 6.36C19.25 6.33 19.12 6.27 18.97 6.26C18.64 6.22 18.31 6.2 17.98 6.18C17.76 6.17 17.69 6.13 17.66 5.91C17.55 5.23 16.91 4.62 16.1 4.63C15.18 4.64 14.27 4.63 13.36 4.63C12.68 4.63 12.1 5.03 11.87 5.66C11.83 5.75 11.82 5.85 11.8 5.94C11.77 6.11 11.71 6.17 11.54 6.18C11.18 6.18 10.81 6.18 10.46 6.18C10.29 6.18 10.22 6.11 10.19 5.92C10.15 5.66 10.05 5.42 9.88 5.22C9.57 4.84 9.17 4.64 8.68 4.63C7.74 4.63 6.8 4.63 5.85 4.63C5.06 4.63 4.44 5.24 4.34 5.91C4.31 6.13 4.24 6.17 4.02 6.18C3.65 6.21 3.29 6.24 2.92 6.28C2.81 6.29 2.7 6.34 2.59 6.36C2.47 6.38 2.41 6.34 2.38 6.22C2.36 6.17 2.36 6.12 2.36 6.08C2.36 4.97 2.34 3.87 2.36 2.76C2.38 1.61 2.92 0.76 3.98 0.24C4.4 0.04 4.86 0 5.32 0C7.18 0 9.04 0 10.9 0Z" fill="#FFFFFF" fill-opacity="1.000000" fill-rule="nonzero"/>
	</g>
</svg>
