<svg width="40.000000" height="40.000000" viewBox="0 0 40 40" fill="none" xmlns="http://www.w3.org/2000/svg" xmlns:xlink="http://www.w3.org/1999/xlink">
	<desc>
			Created with Pixso.
	</desc>
	<defs>
		<clipPath id="clip139_7778">
			<rect id="Icon" width="20.000000" height="20.000000" transform="translate(10.000000 10.000000)" fill="white" fill-opacity="0"/>
		</clipPath>
		<clipPath id="clip139_7329">
			<rect id="Button" rx="20.000000" width="40.000000" height="40.000000" fill="white" fill-opacity="0"/>
		</clipPath>
	</defs>
	<rect id="Button" rx="20.000000" width="40.000000" height="40.000000" fill="#141414" fill-opacity="1.000000"/>
	<g clip-path="url(#clip139_7329)">
		<rect id="Icon" width="20.000000" height="20.000000" transform="translate(10.000000 10.000000)" fill="#FFFFFF" fill-opacity="0"/>
		<g clip-path="url(#clip139_7778)">
			<g style="mix-blend-mode:normal">
				<path id="Icon" d="M23.12 13.32L25 13.32L25 10.14C24.08 10.04 23.17 9.99 22.26 10C19.54 10 17.68 11.65 17.68 14.7L17.68 17.32L14.61 17.32L14.61 20.88L17.68 20.88L17.68 30L21.36 30L21.36 20.88L24.41 20.88L24.87 17.32L21.36 17.32L21.36 15.05C21.36 14 21.64 13.32 23.12 13.32Z" fill="#FFFFFF" fill-opacity="1.000000" fill-rule="nonzero"/>
			</g>
		</g>
	</g>
</svg>
