<svg width="40.000000" height="40.000000" viewBox="0 0 40 40" fill="none" xmlns="http://www.w3.org/2000/svg" xmlns:xlink="http://www.w3.org/1999/xlink">
	<desc>
			Created with Pixso.
	</desc>
	<defs>
		<clipPath id="clip139_7335">
			<rect id="Icon" width="20.000000" height="20.000000" transform="translate(10.000000 10.000000)" fill="white" fill-opacity="0"/>
		</clipPath>
		<clipPath id="clip139_7334">
			<rect id="Button" rx="20.000000" width="40.000000" height="40.000000" fill="white" fill-opacity="0"/>
		</clipPath>
	</defs>
	<rect id="Button" rx="20.000000" width="40.000000" height="40.000000" fill="#141414" fill-opacity="1.000000"/>
	<g clip-path="url(#clip139_7334)">
		<rect id="Icon" width="20.000000" height="20.000000" transform="translate(10.000000 10.000000)" fill="#FFFFFF" fill-opacity="0"/>
		<g clip-path="url(#clip139_7335)">
			<path id="Vector" d="M28.33 14.83C27.7 15.1 27.04 15.28 26.36 15.36C27.08 14.93 27.61 14.26 27.87 13.47C27.2 13.87 26.46 14.15 25.7 14.3C25.18 13.75 24.5 13.38 23.75 13.25C23.01 13.12 22.24 13.25 21.57 13.61C20.91 13.96 20.38 14.53 20.07 15.22C19.76 15.91 19.68 16.68 19.86 17.42C18.5 17.35 17.17 17 15.96 16.38C14.75 15.77 13.68 14.9 12.82 13.84C12.52 14.37 12.36 14.96 12.36 15.57C12.36 16.13 12.5 16.69 12.76 17.18C13.03 17.68 13.41 18.1 13.88 18.41C13.33 18.4 12.8 18.25 12.33 17.99L12.33 18.03C12.33 18.82 12.61 19.58 13.11 20.18C13.61 20.79 14.31 21.21 15.08 21.36C14.78 21.45 14.47 21.5 14.16 21.5C13.95 21.5 13.73 21.48 13.52 21.45C13.74 22.12 14.17 22.71 14.74 23.14C15.31 23.56 16 23.8 16.71 23.81C15.51 24.76 14.03 25.27 12.5 25.28C12.22 25.28 11.94 25.26 11.66 25.23C13.22 26.24 15.04 26.77 16.9 26.77C18.19 26.78 19.46 26.54 20.65 26.06C21.84 25.57 22.92 24.86 23.83 23.95C24.73 23.04 25.45 21.97 25.94 20.78C26.43 19.59 26.67 18.32 26.66 17.04C26.66 16.89 26.66 16.75 26.66 16.59C27.32 16.11 27.88 15.51 28.33 14.83Z" fill="#FFFFFF" fill-opacity="1.000000" fill-rule="nonzero"/>
		</g>
	</g>
</svg>
