<svg width="40.000000" height="40.000000" viewBox="0 0 40 40" fill="none" xmlns="http://www.w3.org/2000/svg" xmlns:xlink="http://www.w3.org/1999/xlink">
	<desc>
			Created with Pixso.
	</desc>
	<defs>
		<clipPath id="clip139_7332">
			<rect id="Icon" width="20.000000" height="20.000000" transform="translate(10.000000 10.000000)" fill="white" fill-opacity="0"/>
		</clipPath>
		<clipPath id="clip139_7331">
			<rect id="Button" rx="20.000000" width="40.000000" height="40.000000" fill="white" fill-opacity="0"/>
		</clipPath>
	</defs>
	<rect id="Button" rx="20.000000" width="40.000000" height="40.000000" fill="#141414" fill-opacity="1.000000"/>
	<g clip-path="url(#clip139_7331)">
		<rect id="Icon" width="20.000000" height="20.000000" transform="translate(10.000000 10.000000)" fill="#FFFFFF" fill-opacity="0"/>
		<g clip-path="url(#clip139_7332)">
			<path id="Vector" d="M27.05 11.66L12.94 11.66C12.78 11.66 12.62 11.69 12.47 11.75C12.33 11.81 12.19 11.89 12.08 12C11.96 12.11 11.87 12.25 11.81 12.39C11.75 12.54 11.71 12.69 11.71 12.85L11.71 27.14C11.71 27.3 11.75 27.45 11.81 27.6C11.87 27.74 11.96 27.88 12.08 27.99C12.19 28.1 12.33 28.18 12.47 28.24C12.62 28.3 12.78 28.33 12.94 28.33L27.05 28.33C27.21 28.33 27.37 28.3 27.52 28.24C27.66 28.18 27.8 28.1 27.91 27.99C28.03 27.88 28.12 27.74 28.18 27.6C28.24 27.45 28.28 27.3 28.28 27.14L28.28 12.85C28.28 12.69 28.24 12.54 28.18 12.39C28.12 12.25 28.03 12.11 27.91 12C27.8 11.89 27.66 11.81 27.52 11.75C27.37 11.69 27.21 11.66 27.05 11.66ZM16.74 25.61L14.24 25.61L14.24 18.11L16.74 18.11L16.74 25.61ZM15.49 17.06C15.14 17.06 14.81 16.92 14.57 16.68C14.32 16.44 14.19 16.11 14.19 15.76C14.19 15.42 14.32 15.09 14.57 14.84C14.81 14.6 15.14 14.46 15.49 14.46C15.67 14.44 15.86 14.46 16.03 14.51C16.21 14.57 16.37 14.66 16.51 14.79C16.64 14.91 16.75 15.06 16.83 15.23C16.9 15.4 16.94 15.58 16.94 15.76C16.94 15.95 16.9 16.13 16.83 16.3C16.75 16.46 16.64 16.61 16.51 16.74C16.37 16.86 16.21 16.95 16.03 17.01C15.86 17.06 15.67 17.08 15.49 17.06ZM25.75 25.61L23.25 25.61L23.25 21.59C23.25 20.58 22.9 19.92 21.99 19.92C21.71 19.92 21.43 20.01 21.2 20.17C20.97 20.34 20.8 20.56 20.7 20.83C20.64 21.02 20.61 21.23 20.62 21.44L20.62 25.6L18.12 25.6C18.12 25.6 18.12 18.79 18.12 18.1L20.62 18.1L20.62 19.16C20.85 18.77 21.18 18.44 21.58 18.22C21.97 18 22.42 17.89 22.88 17.91C24.54 17.91 25.75 18.99 25.75 21.3L25.75 25.61Z" fill="#FFFFFF" fill-opacity="1.000000" fill-rule="nonzero"/>
		</g>
	</g>
</svg>
