<svg width="54.720215" height="24.000000" viewBox="0 0 54.7202 24" fill="none" xmlns="http://www.w3.org/2000/svg" xmlns:xlink="http://www.w3.org/1999/xlink">
	<desc>
			Created with Pixso.
	</desc>
	<defs>
		<clipPath id="clip139_6493">
			<rect id="Frame 3186" width="24.000000" height="24.000000" fill="white" fill-opacity="0"/>
		</clipPath>
		<clipPath id="clip139_6500">
			<rect id="Frame 3187" width="14.400000" height="14.400000" transform="translate(28.799805 4.799988)" fill="white" fill-opacity="0"/>
		</clipPath>
		<clipPath id="clip139_6507">
			<rect id="Frame 3188" width="6.720000" height="6.720000" transform="translate(48.000000 8.640015)" fill="white" fill-opacity="0"/>
		</clipPath>
	</defs>
	<g clip-path="url(#clip139_6493)">
		<path id="Vector" d="M24 12.01C24 18.64 18.62 24.01 12 24.01C5.37 24.01 0 18.64 0 12.01C0 5.38 5.37 0.01 12 0.01C18.62 0.01 24 5.38 24 12.01Z" fill="#666666" fill-opacity="1.000000" fill-rule="evenodd"/>
		<path id="Vector" d="M12 24C12 30.62 6.62 36 0 36C-6.63 36 -12 30.62 -12 24C-12 17.37 -6.63 12 0 12C6.62 12 12 17.37 12 24Z" fill="#141414" fill-opacity="1.000000" fill-rule="evenodd"/>
		<path id="Vector" d="M36 24C36 30.62 30.62 36 24 36C17.37 36 12 30.62 12 24C12 17.37 17.37 12 24 12C30.62 12 36 17.37 36 24Z" fill="#141414" fill-opacity="1.000000" fill-rule="evenodd"/>
		<path id="Vector" d="M12 0C12 6.62 6.62 12 0 12C-6.63 12 -12 6.62 -12 0C-12 -6.63 -6.63 -12 0 -12C6.62 -12 12 -6.63 12 0Z" fill="#141414" fill-opacity="1.000000" fill-rule="evenodd"/>
		<path id="Vector" d="M36 0C36 6.62 30.62 12 24 12C17.37 12 12 6.62 12 0C12 -6.63 17.37 -12 24 -12C30.62 -12 36 -6.63 36 0Z" fill="#141414" fill-opacity="1.000000" fill-rule="evenodd"/>
	</g>
	<g clip-path="url(#clip139_6500)">
		<path id="Vector" d="M43.19 12C43.19 15.98 39.97 19.2 36 19.2C32.02 19.2 28.79 15.98 28.79 12C28.79 8.03 32.02 4.8 36 4.8C39.97 4.8 43.19 8.03 43.19 12Z" fill="#333333" fill-opacity="1.000000" fill-rule="evenodd"/>
		<path id="Vector" d="M36 19.2C36 23.17 32.77 26.4 28.8 26.4C24.82 26.4 21.6 23.17 21.6 19.2C21.6 15.22 24.82 12 28.8 12C32.77 12 36 15.22 36 19.2Z" fill="#141414" fill-opacity="1.000000" fill-rule="evenodd"/>
		<path id="Vector" d="M50.39 19.2C50.39 23.17 47.17 26.4 43.2 26.4C39.22 26.4 36 23.17 36 19.2C36 15.22 39.22 12 43.2 12C47.17 12 50.39 15.22 50.39 19.2Z" fill="#141414" fill-opacity="1.000000" fill-rule="evenodd"/>
		<path id="Vector" d="M36 4.79C36 8.77 32.77 12 28.8 12C24.82 12 21.6 8.77 21.6 4.79C21.6 0.82 24.82 -2.41 28.8 -2.41C32.77 -2.41 36 0.82 36 4.79Z" fill="#141414" fill-opacity="1.000000" fill-rule="evenodd"/>
		<path id="Vector" d="M50.39 4.79C50.39 8.77 47.17 12 43.2 12C39.22 12 36 8.77 36 4.79C36 0.82 39.22 -2.41 43.2 -2.41C47.17 -2.41 50.39 0.82 50.39 4.79Z" fill="#141414" fill-opacity="1.000000" fill-rule="evenodd"/>
	</g>
	<g clip-path="url(#clip139_6507)">
		<path id="Vector" d="M54.72 12C54.72 13.85 53.21 15.36 51.35 15.36C49.5 15.36 48 13.85 48 12C48 10.14 49.5 8.64 51.35 8.64C53.21 8.64 54.72 10.14 54.72 12Z" fill="#333333" fill-opacity="1.000000" fill-rule="evenodd"/>
		<path id="Vector" d="M51.36 15.36C51.36 17.21 49.85 18.71 48 18.71C46.14 18.71 44.64 17.21 44.64 15.36C44.64 13.5 46.14 12 48 12C49.85 12 51.36 13.5 51.36 15.36Z" fill="#141414" fill-opacity="1.000000" fill-rule="evenodd"/>
		<path id="Vector" d="M58.08 15.36C58.08 17.21 56.57 18.71 54.71 18.71C52.86 18.71 51.35 17.21 51.35 15.36C51.35 13.5 52.86 12 54.71 12C56.57 12 58.08 13.5 58.08 15.36Z" fill="#141414" fill-opacity="1.000000" fill-rule="evenodd"/>
		<path id="Vector" d="M51.36 8.64C51.36 10.49 49.85 12 48 12C46.14 12 44.64 10.49 44.64 8.64C44.64 6.78 46.14 5.28 48 5.28C49.85 5.28 51.36 6.78 51.36 8.64Z" fill="#141414" fill-opacity="1.000000" fill-rule="evenodd"/>
		<path id="Vector" d="M58.08 8.64C58.08 10.49 56.57 12 54.71 12C52.86 12 51.35 10.49 51.35 8.64C51.35 6.78 52.86 5.28 54.71 5.28C56.57 5.28 58.08 6.78 58.08 8.64Z" fill="#141414" fill-opacity="1.000000" fill-rule="evenodd"/>
	</g>
</svg>
