<svg width="129.000000" height="129.000000" viewBox="0 0 129 129" fill="none" xmlns="http://www.w3.org/2000/svg" xmlns:xlink="http://www.w3.org/1999/xlink">
	<desc>
			Created with Pixso.
	</desc>
	<defs>
		<clipPath id="clip139_6338">
			<rect id="Icon" width="24.000000" height="24.000000" transform="translate(53.000000 52.000000)" fill="white" fill-opacity="0"/>
		</clipPath>
		<clipPath id="clip139_6336">
			<rect id="Sub Container" rx="63.913635" width="127.827271" height="127.827271" transform="translate(0.586364 0.586364)" fill="white" fill-opacity="0"/>
		</clipPath>
	</defs>
	<rect id="Sub Container" rx="63.913635" width="127.827271" height="127.827271" transform="translate(0.586364 0.586364)" fill="#141414" fill-opacity="1.000000"/>
	<g clip-path="url(#clip139_6336)">
		<rect id="Shape" x="35.181641" y="35.181885" rx="29.318182" width="58.636364" height="58.636364" fill="#1A1A1A" fill-opacity="1.000000"/>
		<rect id="Shape" x="35.767578" y="35.768188" rx="28.731819" width="57.463638" height="57.463638" stroke="#262626" stroke-opacity="1.000000" stroke-width="1.172727"/>
		<g clip-path="url(#clip139_6338)">
			<path id="Vector 431" d="M57.5 71.5L72.5 56.5M72.5 67.75L72.5 56.5L61.25 56.5" stroke="#FFFFFF" stroke-opacity="1.000000" stroke-width="1.500000" stroke-linejoin="round"/>
		</g>
		<path id="Text" d="M54.4 109.62C54.78 107.14 56.44 105.86 58.87 106.23L61.56 106.64L60.35 114.59L57.6 114.17C55.23 113.81 54.02 112.1 54.4 109.62ZM59.1 113.13L59.93 107.66L58.75 107.48C57.09 107.23 56.11 108.01 55.83 109.84C55.55 111.67 56.26 112.69 57.87 112.94L59.1 113.13Z" fill="#FFFFFF" fill-opacity="1.000000" fill-rule="evenodd"/>
		<path id="Text" d="M47.1 111.08C47.24 110.68 47.7 110.48 48.13 110.63C48.56 110.78 48.79 111.23 48.65 111.63C48.51 112.03 48.04 112.24 47.61 112.08C47.19 111.93 46.96 111.48 47.1 111.08ZM49.77 103.9L51.11 104.38L49.09 110.06L47.75 109.58L49.77 103.9Z" fill="#FFFFFF" fill-opacity="1.000000" fill-rule="evenodd"/>
		<path id="Text" d="M41.24 106.64C40 105.96 39.59 105 39.9 104.01L41.11 104.5C41.02 104.9 41.15 105.38 41.73 105.69C42.25 105.98 42.78 105.94 42.97 105.58C43.14 105.28 43.03 104.98 42.55 104.56L41.76 103.88C40.87 103.12 40.64 102.39 41.04 101.63C41.59 100.63 42.9 100.45 44.23 101.17C45.53 101.87 46.03 102.89 45.66 103.95L44.38 103.41C44.53 102.87 44.29 102.42 43.72 102.11C43.13 101.79 42.58 101.85 42.39 102.21C42.22 102.51 42.34 102.83 42.77 103.21L43.57 103.89C44.48 104.65 44.68 105.42 44.26 106.19C43.73 107.17 42.52 107.33 41.24 106.64Z" fill="#FFFFFF" fill-opacity="1.000000" fill-rule="evenodd"/>
		<path id="Text" d="M34.31 96.65C35.21 95.73 36.52 95.65 37.69 96.63C39.07 97.78 39.08 99.46 37.91 100.87C36.73 102.28 35.06 102.55 33.7 101.42C32.57 100.47 32.34 99.16 33.1 98.09L34.15 98.96C33.86 99.48 33.9 100.09 34.42 100.52C35.09 101.09 36.01 100.9 36.79 99.96C37.58 99.01 37.62 98.08 36.94 97.51C36.46 97.11 35.86 97.1 35.35 97.52L34.31 96.65Z" fill="#FFFFFF" fill-opacity="1.000000" fill-rule="evenodd"/>
		<path id="Text" d="M27.35 89.84C28.83 88.7 30.5 88.83 31.58 90.23C32.66 91.63 32.36 93.28 30.88 94.42C29.4 95.57 27.72 95.44 26.65 94.04C25.57 92.64 25.87 90.98 27.35 89.84ZM30 93.29C30.87 92.61 31.27 91.7 30.67 90.92C30.09 90.16 29.1 90.31 28.23 90.99C27.35 91.66 26.95 92.58 27.53 93.34C28.13 94.12 29.12 93.96 30 93.29Z" fill="#FFFFFF" fill-opacity="1.000000" fill-rule="evenodd"/>
		<path id="Text" d="M20.59 83.62L19.95 82.25L26.33 81.64L26.99 83.07L22.44 87.57L21.79 86.2L25.27 83.04L25.24 82.99L20.59 83.62Z" fill="#FFFFFF" fill-opacity="1.000000" fill-rule="evenodd"/>
		<path id="Text" d="M21.6 71.54C22.68 71.56 23.56 72.36 23.87 73.73C24.26 75.51 23.32 76.85 21.47 77.26C19.66 77.66 18.17 76.84 17.8 75.15C17.48 73.7 18.11 72.26 20.18 71.8L20.6 71.7L21.51 75.81C22.52 75.57 22.98 74.85 22.78 73.95C22.65 73.35 22.29 72.95 21.74 72.87L21.6 71.54ZM18.88 74.89C19.06 75.72 19.82 76.14 20.58 76.01L19.96 73.24C19.16 73.43 18.7 74.09 18.88 74.89Z" fill="#FFFFFF" fill-opacity="1.000000" fill-rule="evenodd"/>
		<path id="Text" d="M22.77 65.55L22.8 66.97L16.77 67.09L16.74 65.71L17.74 65.69L17.74 65.63C17.04 65.42 16.64 64.85 16.62 64.16C16.62 64 16.63 63.78 16.65 63.65L17.96 63.62C17.92 63.74 17.88 64.05 17.89 64.29C17.91 65.07 18.46 65.63 19.23 65.62L22.77 65.55Z" fill="#FFFFFF" fill-opacity="1.000000" fill-rule="evenodd"/>
		<path id="Text" d="" fill="#FFFFFF" fill-opacity="1.000000" fill-rule="evenodd"/>
		<path id="Text" d="M21.97 50.79L16.25 51.95L16.78 50.39L20.78 49.67L20.81 49.59L18.06 46.58L18.59 45.02L22.43 49.41L25.28 50.38L24.81 51.75L21.97 50.79Z" fill="#FFFFFF" fill-opacity="1.000000" fill-rule="evenodd"/>
		<path id="Text" d="M28.15 38.42C29.73 39.41 30.19 41.02 29.25 42.52C28.31 44.02 26.66 44.31 25.08 43.32C23.49 42.33 23.03 40.71 23.97 39.22C24.91 37.72 26.56 37.43 28.15 38.42ZM25.84 42.1C26.78 42.68 27.77 42.74 28.29 41.91C28.8 41.1 28.32 40.23 27.38 39.64C26.44 39.05 25.44 38.99 24.93 39.81C24.41 40.64 24.9 41.51 25.84 42.1Z" fill="#FFFFFF" fill-opacity="1.000000" fill-rule="evenodd"/>
		<path id="Text" d="M34.17 34.28C34.62 33.83 34.75 33.05 34.1 32.4L31.61 29.94L32.61 28.93L36.9 33.17L35.94 34.15L35.17 33.4L35.13 33.44C35.41 34.11 35.31 34.9 34.67 35.54C33.84 36.39 32.68 36.4 31.64 35.38L28.91 32.68L29.91 31.67L32.49 34.21C33.03 34.75 33.69 34.77 34.17 34.28Z" fill="#FFFFFF" fill-opacity="1.000000" fill-rule="evenodd"/>
		<path id="Text" d="M40.98 30.12L39.81 30.93L36.4 25.95L37.53 25.17L38.1 26L38.15 25.97C37.94 25.26 38.2 24.61 38.77 24.22C38.9 24.13 39.09 24.02 39.21 23.97L39.95 25.05C39.83 25.08 39.55 25.22 39.36 25.35C38.71 25.79 38.54 26.57 38.98 27.2L40.98 30.12Z" fill="#FFFFFF" fill-opacity="1.000000" fill-rule="evenodd"/>
		<path id="Text" d="" fill="#FFFFFF" fill-opacity="1.000000" fill-rule="evenodd"/>
		<path id="Text" d="M56.76 19.31C57.37 21.75 56.33 23.57 53.96 24.17L51.31 24.84L49.34 17.04L52.04 16.36C54.36 15.77 56.14 16.88 56.76 19.31ZM51.06 17.91L52.42 23.26L53.58 22.97C55.21 22.56 55.81 21.46 55.36 19.66C54.9 17.87 53.85 17.2 52.27 17.6L51.06 17.91Z" fill="#FFFFFF" fill-opacity="1.000000" fill-rule="evenodd"/>
		<path id="Text" d="M63.21 22.81L61.79 22.86L61.57 16.83L62.95 16.78L62.99 17.78L63.05 17.78C63.25 17.07 63.81 16.66 64.5 16.64C64.66 16.63 64.88 16.64 65.01 16.66L65.06 17.96C64.94 17.93 64.63 17.9 64.39 17.9C63.61 17.93 63.06 18.49 63.08 19.26L63.21 22.81Z" fill="#FFFFFF" fill-opacity="1.000000" fill-rule="evenodd"/>
		<path id="Text" d="M74.35 22.16C73.93 23.16 72.86 23.68 71.48 23.45C69.68 23.16 68.78 21.79 69.09 19.92C69.39 18.08 70.71 17.01 72.41 17.29C73.88 17.53 74.98 18.66 74.64 20.75L74.57 21.18L70.42 20.5C70.27 21.52 70.77 22.21 71.68 22.36C72.28 22.46 72.79 22.28 73.06 21.8L74.35 22.16ZM72.25 18.39C71.42 18.25 70.75 18.8 70.58 19.55L73.38 20.01C73.5 19.2 73.06 18.52 72.25 18.39Z" fill="#FFFFFF" fill-opacity="1.000000" fill-rule="evenodd"/>
		<path id="Text" d="M81.69 25.47C81.26 25.84 80.57 26.03 79.69 25.68C78.63 25.24 78.06 24.33 78.51 23.23C79.03 21.97 80.2 22.07 81.33 22.4C82.36 22.7 82.76 22.84 82.92 22.47L82.93 22.44C83.15 21.9 82.94 21.45 82.33 21.2C81.69 20.93 81.18 21.11 80.9 21.43L79.74 20.76C80.45 19.86 81.56 19.71 82.74 20.19C83.8 20.62 84.82 21.56 84.22 23.03L82.69 26.77L81.42 26.25L81.74 25.49L81.69 25.47ZM79.79 23.73C79.59 24.21 79.88 24.62 80.43 24.85C81.22 25.17 81.94 24.85 82.2 24.23L82.47 23.57C82.24 23.64 81.51 23.44 81.15 23.35C80.52 23.19 80 23.22 79.79 23.73Z" fill="#FFFFFF" fill-opacity="1.000000" fill-rule="evenodd"/>
		<path id="Text" d="M87.88 29.67L86.75 28.81L90.4 24.01L91.48 24.83L90.86 25.64L90.92 25.69C91.53 25.29 92.27 25.33 92.91 25.82C93.56 26.31 93.77 27 93.54 27.68L93.59 27.72C94.21 27.35 95 27.41 95.7 27.94C96.58 28.61 96.77 29.65 95.95 30.72L93.5 33.94L92.36 33.08L94.68 30.03C95.14 29.44 94.98 28.89 94.52 28.55C93.98 28.13 93.37 28.26 92.96 28.8L90.68 31.8L89.57 30.95L91.92 27.86C92.3 27.36 92.22 26.79 91.74 26.43C91.25 26.05 90.55 26.16 90.1 26.75L87.88 29.67Z" fill="#FFFFFF" fill-opacity="1.000000" fill-rule="evenodd"/>
		<path id="Text" d="" fill="#FFFFFF" fill-opacity="1.000000" fill-rule="evenodd"/>
		<path id="Text" d="M100.57 43L99.84 41.74L106.81 37.71L108.32 40.33C109.24 41.93 108.76 43.35 107.43 44.11C106.09 44.89 104.63 44.58 103.7 42.98L102.92 41.64L100.57 43ZM106.48 39.58L103.96 41.04L104.63 42.21C105.18 43.14 105.95 43.26 106.69 42.83C107.43 42.4 107.7 41.69 107.15 40.74L106.48 39.58Z" fill="#FFFFFF" fill-opacity="1.000000" fill-rule="evenodd"/>
		<path id="Text" d="M104.31 50.98L103.84 49.64L109.54 47.67L109.99 48.97L109.04 49.3L109.06 49.36C109.8 49.34 110.36 49.76 110.58 50.41C110.63 50.56 110.69 50.77 110.71 50.9L109.48 51.33C109.48 51.2 109.42 50.91 109.34 50.68C109.08 49.94 108.38 49.57 107.66 49.82L104.31 50.98Z" fill="#FFFFFF" fill-opacity="1.000000" fill-rule="evenodd"/>
		<path id="Text" d="M109.58 61.49C107.73 61.74 106.35 60.79 106.11 59.04C105.87 57.29 106.95 56.01 108.8 55.76C110.66 55.51 112.05 56.45 112.28 58.2C112.52 59.95 111.44 61.24 109.58 61.49ZM109 57.18C107.91 57.33 107.11 57.93 107.24 58.9C107.37 59.85 108.3 60.21 109.39 60.06C110.49 59.91 111.3 59.31 111.17 58.36C111.04 57.39 110.1 57.03 109 57.18Z" fill="#FFFFFF" fill-opacity="1.000000" fill-rule="evenodd"/>
		<path id="Text" d="M104.3 67.08L104.43 65.66L112.69 66.42L112.56 67.81L111.57 67.72L111.56 67.8C111.98 68.06 112.58 68.55 112.48 69.61C112.35 71 111.17 72 109.16 71.82C107.18 71.63 106.16 70.47 106.29 69.06C106.38 68.02 107.04 67.61 107.5 67.43L107.5 67.37L104.3 67.08ZM111.35 69.12C111.44 68.21 110.73 67.64 109.56 67.53C108.4 67.43 107.57 67.86 107.48 68.77C107.4 69.7 108.17 70.27 109.3 70.37C110.42 70.47 111.27 70.06 111.35 69.12Z" fill="#FFFFFF" fill-opacity="1.000000" fill-rule="evenodd"/>
		<path id="Text" d="M105.24 80.79C104.32 80.23 103.97 79.1 104.4 77.76C104.97 76.03 106.46 75.35 108.26 75.94C110.03 76.52 110.89 77.99 110.35 79.63C109.88 81.04 108.6 81.96 106.59 81.3L106.18 81.17L107.49 77.17C106.5 76.86 105.74 77.25 105.45 78.13C105.26 78.71 105.37 79.24 105.79 79.58L105.24 80.79ZM109.29 79.31C109.55 78.5 109.12 77.76 108.4 77.47L107.51 80.17C108.3 80.42 109.03 80.08 109.29 79.31Z" fill="#FFFFFF" fill-opacity="1.000000" fill-rule="evenodd"/>
		<path id="Text" d="M101.17 85.36L101.87 84.12L107.13 87.09L106.45 88.29L105.57 87.8L105.54 87.85C106.04 88.39 106.1 89.09 105.76 89.69C105.68 89.82 105.56 90.01 105.47 90.11L104.33 89.47C104.43 89.38 104.61 89.14 104.73 88.93C105.12 88.25 104.93 87.48 104.26 87.1L101.17 85.36Z" fill="#FFFFFF" fill-opacity="1.000000" fill-rule="evenodd"/>
		<path id="Text" d="M101.58 95.35L100.83 96.27L99.98 95.58L100.73 94.65L98.32 92.68C97.87 92.32 97.59 92.46 97.37 92.74C97.25 92.87 97.18 93.02 97.14 93.09L96.13 92.58C96.19 92.43 96.3 92.16 96.55 91.84C97.2 90.99 98.16 90.71 99.03 91.43L101.63 93.55L102.17 92.89L103.02 93.59L102.48 94.25L103.6 95.16L102.7 96.26L101.58 95.35Z" fill="#FFFFFF" fill-opacity="1.000000" fill-rule="evenodd"/>
		<path id="Text" d="M90.59 96.75C90.23 95.79 90.36 94.94 91.21 94.23C91.51 93.98 91.82 93.81 92.02 93.75L92.47 94.81C91.88 95.07 91.59 95.38 91.83 96.07L91.95 96.4L97.57 99.73L96.41 100.7L92.43 98.09L92.38 98.13L94.23 102.52L93.06 103.49L90.59 96.75Z" fill="#FFFFFF" fill-opacity="1.000000" fill-rule="evenodd"/>
		<path id="Text" d="" fill="#FFFFFF" fill-opacity="1.000000" fill-rule="evenodd"/>
	</g>
	<rect id="Sub Container" rx="63.913635" width="127.827271" height="127.827271" transform="translate(0.586364 0.586364)" stroke="#262626" stroke-opacity="1.000000" stroke-width="1.172727"/>
</svg>
