<svg width="14.000000" height="16.000000" viewBox="0 0 14 16" fill="none" xmlns="http://www.w3.org/2000/svg" xmlns:xlink="http://www.w3.org/1999/xlink">
	<desc>
			Created with Pixso.
	</desc>
	<defs/>
	<path id="Subtract" d="M1 1.5L1 14.5L0.75 14.5C0.335938 14.5 0 14.8358 0 15.25C0 15.6642 0.335938 16 0.75 16L4.25 16C4.66406 16 5 15.6642 5 15.25L5 12.75C5 12.3358 5.33594 12 5.75 12L8.25 12C8.66406 12 9 12.3358 9 12.75L9 15.25C9 15.6642 9.33594 16 9.75 16L13.25 16C13.6641 16 14 15.6642 14 15.25C14 14.8358 13.6641 14.5 13.25 14.5L13 14.5L13 1.5L13.25 1.5C13.6641 1.5 14 1.16422 14 0.75C14 0.335785 13.6641 0 13.25 0L0.75 0C0.335938 0 0 0.335785 0 0.75C0 1.16422 0.335938 1.5 0.75 1.5L1 1.5ZM4 3.5C4 3.22385 4.22363 3 4.5 3L5.5 3C5.77637 3 6 3.22385 6 3.5L6 4.5C6 4.77615 5.77637 5 5.5 5L4.5 5C4.22363 5 4 4.77615 4 4.5L4 3.5ZM8 3.5C8 3.22385 8.22363 3 8.5 3L9.5 3C9.77637 3 10 3.22385 10 3.5L10 4.5C10 4.77615 9.77637 5 9.5 5L8.5 5C8.22363 5 8 4.77615 8 4.5L8 3.5ZM4.5 7C4.22363 7 4 7.22385 4 7.5L4 8.5C4 8.77615 4.22363 9 4.5 9L5.5 9C5.77637 9 6 8.77615 6 8.5L6 7.5C6 7.22385 5.77637 7 5.5 7L4.5 7ZM8.5 7C8.22363 7 8 7.22385 8 7.5L8 8.5C8 8.77615 8.22363 9 8.5 9L9.5 9C9.77637 9 10 8.77615 10 8.5L10 7.5C10 7.22385 9.77637 7 9.5 7L8.5 7Z" clip-rule="evenodd" fill="#FFFFFF" fill-opacity="1.000000" fill-rule="evenodd"/>
</svg>
