<svg width="16.666504" height="15.000000" viewBox="0 0 16.6665 15" fill="none" xmlns="http://www.w3.org/2000/svg" xmlns:xlink="http://www.w3.org/1999/xlink">
	<desc>
			Created with Pixso.
	</desc>
	<defs/>
	<path id="Vector" d="M12.5 3.33L13.33 3.33L13.33 4.16C13.33 4.38 13.42 4.59 13.57 4.75C13.73 4.91 13.94 5 14.16 5C14.38 5 14.59 4.91 14.75 4.75C14.91 4.59 15 4.38 15 4.16L15 3.33L15.83 3.33C16.05 3.33 16.26 3.24 16.42 3.08C16.57 2.93 16.66 2.72 16.66 2.5C16.66 2.27 16.57 2.06 16.42 1.91C16.26 1.75 16.05 1.66 15.83 1.66L15 1.66L15 0.83C15 0.61 14.91 0.4 14.75 0.24C14.59 0.08 14.38 0 14.16 0C13.94 0 13.73 0.08 13.57 0.24C13.42 0.4 13.33 0.61 13.33 0.83L13.33 1.66L12.5 1.66C12.27 1.66 12.06 1.75 11.91 1.91C11.75 2.06 11.66 2.27 11.66 2.5C11.66 2.72 11.75 2.93 11.91 3.08C12.06 3.24 12.27 3.33 12.5 3.33ZM15.83 6.66C15.61 6.66 15.4 6.75 15.24 6.91C15.08 7.06 15 7.27 15 7.5L15 12.5C15 12.72 14.91 12.93 14.75 13.08C14.59 13.24 14.38 13.33 14.16 13.33L2.5 13.33C2.27 13.33 2.06 13.24 1.91 13.08C1.75 12.93 1.66 12.72 1.66 12.5L1.66 4.5L6.56 9.41C7.03 9.88 7.67 10.14 8.33 10.14C8.99 10.14 9.63 9.88 10.1 9.41L12.15 7.35C12.31 7.2 12.4 6.98 12.4 6.76C12.4 6.54 12.31 6.33 12.15 6.17C12 6.01 11.78 5.92 11.56 5.92C11.34 5.92 11.13 6.01 10.97 6.17L8.91 8.23C8.76 8.38 8.55 8.47 8.33 8.47C8.11 8.47 7.9 8.38 7.75 8.23L2.84 3.33L9.16 3.33C9.38 3.33 9.59 3.24 9.75 3.08C9.91 2.93 10 2.72 10 2.5C10 2.27 9.91 2.06 9.75 1.91C9.59 1.75 9.38 1.66 9.16 1.66L2.5 1.66C1.83 1.66 1.2 1.93 0.73 2.39C0.26 2.86 0 3.5 0 4.16L0 12.5C0 13.16 0.26 13.79 0.73 14.26C1.2 14.73 1.83 15 2.5 15L14.16 15C14.82 15 15.46 14.73 15.93 14.26C16.4 13.79 16.66 13.16 16.66 12.5L16.66 7.5C16.66 7.27 16.57 7.06 16.42 6.91C16.26 6.75 16.05 6.66 15.83 6.66Z" fill="#999999" fill-opacity="1.000000" fill-rule="nonzero"/>
</svg>
