<svg width="16.799805" height="14.399994" viewBox="0 0 16.7998 14.4" fill="none" xmlns="http://www.w3.org/2000/svg" xmlns:xlink="http://www.w3.org/1999/xlink">
	<desc>
			Created with Pixso.
	</desc>
	<defs/>
	<path id="Vector (Stroke)" d="M0 7.19C0 6.7 0.4 6.29 0.9 6.29L13.66 6.29L8.67 1.54C8.31 1.2 8.3 0.63 8.65 0.27C8.99 -0.09 9.56 -0.1 9.92 0.25L16.52 6.55C16.7 6.72 16.79 6.95 16.79 7.19C16.79 7.44 16.7 7.67 16.52 7.84L9.92 14.14C9.56 14.49 8.99 14.48 8.65 14.12C8.3 13.76 8.31 13.19 8.67 12.85L13.66 8.1L0.9 8.1C0.4 8.1 0 7.69 0 7.19Z" fill="#FFFFFF" fill-opacity="1.000000" fill-rule="evenodd"/>
</svg>
