<svg width="19.991699" height="19.868408" viewBox="0 0 19.9917 19.8684" fill="none" xmlns="http://www.w3.org/2000/svg" xmlns:xlink="http://www.w3.org/1999/xlink">
	<desc>
			Created with Pixso.
	</desc>
	<defs/>
	<path id="Fill-1" d="M19.42 0.57C18.92 0.06 18.18 -0.13 17.49 0.07L1.4 4.72C0.67 4.92 0.16 5.5 0.02 6.23C-0.12 6.98 0.37 7.93 1.02 8.32L6.05 11.4C6.57 11.71 7.23 11.63 7.66 11.2L13.42 5.44C13.71 5.14 14.19 5.14 14.48 5.44C14.77 5.73 14.77 6.2 14.48 6.5L8.71 12.26C8.28 12.69 8.2 13.36 8.52 13.87L11.59 18.92C11.95 19.52 12.57 19.86 13.25 19.86C13.33 19.86 13.42 19.86 13.5 19.85C14.28 19.75 14.9 19.22 15.13 18.47L19.9 2.5C20.11 1.82 19.92 1.08 19.42 0.57Z" fill="#FFFFFF" fill-opacity="1.000000" fill-rule="nonzero"/>
	<g opacity="0.400000">
		<path id="Combined-Shape" d="M7.45 17.14C7.74 17.43 7.74 17.91 7.45 18.2L6.08 19.56C5.93 19.71 5.74 19.78 5.55 19.78C5.36 19.78 5.17 19.71 5.02 19.56C4.73 19.27 4.73 18.8 5.02 18.5L6.39 17.14C6.68 16.85 7.15 16.85 7.45 17.14ZM6.66 13.35C6.95 13.64 6.95 14.12 6.66 14.41L5.3 15.78C5.15 15.92 4.96 16 4.77 16C4.57 16 4.38 15.92 4.24 15.78C3.94 15.48 3.94 15.01 4.24 14.72L5.6 13.35C5.89 13.06 6.37 13.06 6.66 13.35ZM2.9 12.16C3.19 12.45 3.19 12.92 2.9 13.22L1.54 14.58C1.39 14.73 1.2 14.8 1.01 14.8C0.81 14.8 0.62 14.73 0.48 14.58C0.18 14.29 0.18 13.82 0.48 13.52L1.84 12.16C2.13 11.86 2.61 11.86 2.9 12.16Z" fill="#FFFFFF" fill-opacity="1.000000" fill-rule="nonzero"/>
	</g>
</svg>
