<svg width="222.000000" height="36.000000" viewBox="0 0 222 36" fill="none" xmlns="http://www.w3.org/2000/svg" xmlns:xlink="http://www.w3.org/1999/xlink">
	<desc>
			Created with Pixso.
	</desc>
	<defs/>
	<rect id="Sub Container" rx="17.500000" width="37.000000" height="35.000000" transform="translate(0.500000 0.500000)" fill="#1A1A1A" fill-opacity="1.000000"/>
	<path id="Shape" d="M18.15 9.3L15.8 12.97C15.66 13.19 15.45 13.34 15.21 13.4L10.99 14.51C10.29 14.69 10.01 15.55 10.47 16.11L13.23 19.49C13.39 19.68 13.47 19.93 13.46 20.18L13.21 24.53C13.16 25.26 13.89 25.78 14.57 25.52L18.63 23.94C18.87 23.85 19.12 23.85 19.36 23.94L23.42 25.52C24.1 25.78 24.83 25.26 24.78 24.53L24.53 20.18C24.52 19.93 24.6 19.68 24.76 19.49L27.52 16.11C27.98 15.55 27.7 14.69 27 14.51L22.78 13.4C22.54 13.34 22.33 13.19 22.19 12.97L19.84 9.3C19.44 8.69 18.55 8.69 18.15 9.3Z" fill="#FFE600" fill-opacity="1.000000" fill-rule="evenodd"/>
	<rect id="Sub Container" rx="17.500000" width="37.000000" height="35.000000" transform="translate(0.500000 0.500000)" stroke="#262626" stroke-opacity="1.000000" stroke-width="1.000000"/>
	<rect id="Sub Container" rx="17.500000" width="37.000000" height="35.000000" transform="translate(46.500000 0.500000)" fill="#1A1A1A" fill-opacity="1.000000"/>
	<path id="Shape" d="M64.15 9.3L61.8 12.97C61.66 13.19 61.45 13.34 61.21 13.4L56.99 14.51C56.29 14.69 56.01 15.55 56.47 16.11L59.23 19.49C59.39 19.68 59.47 19.93 59.46 20.18L59.21 24.53C59.16 25.26 59.89 25.78 60.57 25.52L64.63 23.94C64.87 23.85 65.12 23.85 65.36 23.94L69.42 25.52C70.1 25.78 70.83 25.26 70.78 24.53L70.53 20.18C70.52 19.93 70.6 19.68 70.76 19.49L73.52 16.11C73.98 15.55 73.7 14.69 73 14.51L68.78 13.4C68.54 13.34 68.33 13.19 68.19 12.97L65.84 9.3C65.44 8.69 64.55 8.69 64.15 9.3Z" fill="#FFE600" fill-opacity="1.000000" fill-rule="evenodd"/>
	<rect id="Sub Container" rx="17.500000" width="37.000000" height="35.000000" transform="translate(46.500000 0.500000)" stroke="#262626" stroke-opacity="1.000000" stroke-width="1.000000"/>
	<rect id="Sub Container" rx="17.500000" width="37.000000" height="35.000000" transform="translate(92.500000 0.500000)" fill="#1A1A1A" fill-opacity="1.000000"/>
	<path id="Shape" d="M110.15 9.3L107.8 12.97C107.66 13.19 107.45 13.34 107.21 13.4L102.99 14.51C102.29 14.69 102.01 15.55 102.47 16.11L105.23 19.49C105.39 19.68 105.47 19.93 105.46 20.18L105.21 24.53C105.17 25.26 105.89 25.78 106.57 25.52L110.63 23.94C110.87 23.85 111.13 23.85 111.36 23.94L115.42 25.52C116.1 25.78 116.83 25.26 116.78 24.53L116.53 20.18C116.52 19.93 116.6 19.68 116.76 19.49L119.52 16.11C119.98 15.55 119.7 14.69 119 14.51L114.78 13.4C114.54 13.34 114.33 13.19 114.19 12.97L111.84 9.3C111.44 8.69 110.55 8.69 110.15 9.3Z" fill="#FFE600" fill-opacity="1.000000" fill-rule="evenodd"/>
	<rect id="Sub Container" rx="17.500000" width="37.000000" height="35.000000" transform="translate(92.500000 0.500000)" stroke="#262626" stroke-opacity="1.000000" stroke-width="1.000000"/>
	<rect id="Sub Container" rx="17.500000" width="37.000000" height="35.000000" transform="translate(138.500000 0.500000)" fill="#1A1A1A" fill-opacity="1.000000"/>
	<path id="Shape" d="M156.15 9.3L153.8 12.97C153.66 13.19 153.45 13.34 153.21 13.4L148.99 14.51C148.29 14.69 148.01 15.55 148.47 16.11L151.23 19.49C151.39 19.68 151.47 19.93 151.46 20.18L151.21 24.53C151.17 25.26 151.89 25.78 152.57 25.52L156.63 23.94C156.87 23.85 157.13 23.85 157.36 23.94L161.42 25.52C162.1 25.78 162.83 25.26 162.78 24.53L162.53 20.18C162.52 19.93 162.6 19.68 162.76 19.49L165.52 16.11C165.98 15.55 165.7 14.69 165 14.51L160.78 13.4C160.54 13.34 160.33 13.19 160.19 12.97L157.84 9.3C157.44 8.69 156.55 8.69 156.15 9.3Z" fill="#FFE600" fill-opacity="1.000000" fill-rule="evenodd"/>
	<rect id="Sub Container" rx="17.500000" width="37.000000" height="35.000000" transform="translate(138.500000 0.500000)" stroke="#262626" stroke-opacity="1.000000" stroke-width="1.000000"/>
	<rect id="Sub Container" rx="17.500000" width="37.000000" height="35.000000" transform="translate(184.500000 0.500000)" fill="#1A1A1A" fill-opacity="1.000000"/>
	<path id="Shape" d="M202.15 9.3L199.8 12.97C199.66 13.19 199.45 13.34 199.21 13.4L194.99 14.51C194.29 14.69 194.01 15.55 194.47 16.11L197.23 19.49C197.39 19.68 197.47 19.93 197.46 20.18L197.21 24.53C197.17 25.26 197.89 25.78 198.57 25.52L202.63 23.94C202.87 23.85 203.13 23.85 203.36 23.94L207.42 25.52C208.1 25.78 208.83 25.26 208.78 24.53L208.53 20.18C208.52 19.93 208.6 19.68 208.76 19.49L211.52 16.11C211.98 15.55 211.7 14.69 211 14.51L206.78 13.4C206.54 13.34 206.33 13.19 206.19 12.97L203.84 9.3C203.44 8.69 202.55 8.69 202.15 9.3Z" fill="#FFE600" fill-opacity="1.000000" fill-rule="evenodd"/>
	<rect id="Sub Container" rx="17.500000" width="37.000000" height="35.000000" transform="translate(184.500000 0.500000)" stroke="#262626" stroke-opacity="1.000000" stroke-width="1.000000"/>
</svg>
